<svg xmlns="http://www.w3.org/2000/svg" width="12" height="12" viewBox="0 0 12 12">
  <path id="iconmonstr-chrome-1" d="M1.448,2.091a6,6,0,0,1,9.895,1.186H6.7a3.892,3.892,0,0,0-1.963.289A2.767,2.767,0,0,0,3.345,5.389l-1.9-3.3ZM4,6A1.994,1.994,0,1,0,6,4,2,2,0,0,0,4,6ZM6.771,8.611A2.688,2.688,0,0,1,3.625,7.337C3.077,6.391,1.63,3.87.972,2.724A5.928,5.928,0,0,0,0,5.978a6,6,0,0,0,4.837,5.909L6.771,8.611ZM7.85,4a2.731,2.731,0,0,1,.5,3.359c-.476.82-1.994,3.383-2.73,4.624A5.992,5.992,0,0,0,11.655,4Z" fill="#183247"/>
</svg>
