<svg xmlns="http://www.w3.org/2000/svg" width="22" height="22" viewBox="0 0 22 22">
  <path id="iconmonstr-globe-thin" d="M11.018,0a11,11,0,1,1-.036,0h.036ZM14.4,14.667H7.6c.586,3.91,2.055,6.417,3.4,6.417s2.819-2.506,3.4-6.417m5.99,0H15.332a12.723,12.723,0,0,1-2.278,6.207,10.107,10.107,0,0,0,7.341-6.207m-13.726,0H1.605a10.11,10.11,0,0,0,7.342,6.207,12.723,12.723,0,0,1-2.278-6.207M6.556,8.25H1.3a10.123,10.123,0,0,0,0,5.5H6.556a27.336,27.336,0,0,1,0-5.5m7.967,0H7.478a26.232,26.232,0,0,0,0,5.5h7.045a26.235,26.235,0,0,0,0-5.5m6.18,0H15.445a27.154,27.154,0,0,1,0,5.5H20.7a10.122,10.122,0,0,0,0-5.5M8.947,1.127A10.11,10.11,0,0,0,1.605,7.333H6.669A12.72,12.72,0,0,1,8.947,1.127M14.4,7.333C13.819,3.423,12.349.917,11,.917S8.182,3.423,7.6,7.333Zm-1.35-6.207a12.72,12.72,0,0,1,2.278,6.207h5.063a10.107,10.107,0,0,0-7.341-6.207" fill="#647a8e" fill-rule="evenodd"/>
</svg>
