<svg xmlns="http://www.w3.org/2000/svg" width="13" height="11.917" viewBox="0 0 13 11.917">
  <path id="icon-pending" d="M6.229,12.917l-4.6-2.456V8.319L4.55,10.01,6.229,8.165Zm.542,0V8.146L8.484,9.957l2.891-1.6V10.46Zm-5.6-5.484L0,6.758,1.625,4.969,0,3.44,4.722,1,6.464,2.292,8.265,1,13,3.471l-1.622,1.5L13,6.836l-1.214.672h0l-3.2,1.771L6.775,7.361l4.017-2.146L6.5,2.847,2.209,5.215l4.02,2.133v.013L4.443,9.323,1.625,7.693l-.087-.05-.368-.213h0Z" transform="translate(0 -1)" fill="#183247" fill-rule="evenodd"/>
</svg>
