<svg xmlns="http://www.w3.org/2000/svg" width="9.768" height="13" viewBox="0 0 9.768 13">
  <path id="icon-resolved" d="M8.123,13V9.755l1.2,1.274,2.189-1.148v1.309L8.123,13Zm-.542,0L4.191,11.189V9.854L6.405,11.07,7.582,9.778Zm-2-8.295a3.708,3.708,0,0,1,.79,1.723L4.63,7.385,7.582,8.951v.023L6.292,10.39,3.8,9.022h0l-.83-.478L4.191,7.2,2.97,6.052,5.578,4.7Zm4.567.017,2.594,1.354L11.517,7.2h0l1.221,1.4-.869.481L9.44,10.359,8.123,8.966v0l2.956-1.58L9.363,6.438a3.3,3.3,0,0,1,.782-1.718ZM8,7.583H7.713a.294.294,0,0,1-.194-.069l-.375-.247H8.565l-.375.247A.292.292,0,0,1,8,7.583Zm.583-.632H7.139a.158.158,0,1,1,0-.316h1.44a.158.158,0,0,1,0,.316Zm.156-.632H6.974c0-1.248-1.015-1.788-1.015-2.916A1.813,1.813,0,0,1,7.854,1.58,1.815,1.815,0,0,1,9.751,3.4C9.751,4.532,8.735,5.054,8.735,6.32ZM5.34,3.43H4.379V2.889h.986a2.1,2.1,0,0,0-.033.366Zm5.99,0h-.955l.007-.175a2.1,2.1,0,0,0-.032-.366h.98ZM5.914,1.795a2.276,2.276,0,0,0-.316.439L4.818,1.68l.314-.441.783.556Zm3.884,0,.779-.554.314.441-.776.551A2.305,2.305,0,0,0,9.8,1.792ZM6.924,1.129a2.586,2.586,0,0,0-.488.236L6.017.509,6.5.271Zm1.863,0L9.206.271l.486.238-.417.853a2.672,2.672,0,0,0-.489-.235ZM8.126.98C8.037.972,7.948.967,7.857.967s-.184,0-.274.013V0h.542V.98Z" transform="translate(-2.97)" fill="#183247" fill-rule="evenodd"/>
</svg>
