<svg xmlns="http://www.w3.org/2000/svg" xmlns:xlink="http://www.w3.org/1999/xlink" width="32" height="32" viewBox="0 0 32 32">
  <defs>
    <clipPath id="clip-path">
      <rect id="Rectangle_10" data-name="Rectangle 10" width="32" height="32" transform="translate(1856)" fill="#fff"/>
    </clipPath>
  </defs>
  <g id="Mask_Group_1" data-name="Mask Group 1" transform="translate(-1856)" clip-path="url(#clip-path)">
    <path id="iconmonstr-delivery-9" d="M16.888,30.544l-3.716-7.172-2.179,1.067c-2.364,1.147-7.177-8.255-4.865-9.493l2.2-1.083L4.64,6.667l-2.223,1.1c-7.6,3.963,4.468,27.425,12.244,23.871.128-.057,2.219-1.087,2.227-1.091Zm6.536-3.471,1.388,2.28A15.961,15.961,0,0,1,20.344,31.4L19.1,28.971A13.254,13.254,0,0,0,23.424,27.073Zm3.9-4.029,2.509,1a16.12,16.12,0,0,1-3.413,4.095l-1.409-2.315a13.406,13.406,0,0,0,2.313-2.783Zm.932-1.781A13.332,13.332,0,0,0,7.288,5.909L6.044,3.477A16,16,0,0,1,30.73,22.253l-2.477-.991ZM23.571,20H21.654V17.933h-3.84V16.615l3.28-5.28h2.477v5.08h1.04v1.519h-1.04Zm-6.76,0H10.667V18.775l1.12-1.013c1.893-1.693,2.813-2.667,2.84-3.681,0-.707-.427-1.267-1.427-1.267a3.141,3.141,0,0,0-1.853.72l-.573-1.452a4.8,4.8,0,0,1,2.84-.893c1.959,0,3.037,1.145,3.037,2.719,0,1.455-1.052,2.615-2.3,3.735l-.8.667v.027h3.264V20Zm4.843-3.585v-1.92c0-.521.027-1.055.067-1.615h-.053c-.28.56-.507,1.067-.8,1.615l-1.16,1.893v.027h1.947Z" transform="translate(1855.999 0)" fill="#fff" fill-rule="evenodd"/>
  </g>
</svg>
