<svg xmlns="http://www.w3.org/2000/svg" width="20" height="20" viewBox="0 0 20 20">
  <path id="iconmonstr-dashboard-2" d="M10,1.667A8.333,8.333,0,1,1,1.667,10,8.343,8.343,0,0,1,10,1.667ZM10,0A10,10,0,1,0,20,10,10.011,10.011,0,0,0,10,0Zm6.684,7.994a7.459,7.459,0,0,0-.43-1.035l-2.045.922a5.141,5.141,0,0,1,.431,1.035ZM6.207,7.241a4.994,4.994,0,0,1,.766-.8L5.4,4.8a7.286,7.286,0,0,0-.765.8l1.574,1.64ZM7.636,5.979a4.7,4.7,0,0,1,1-.436L7.772,3.4a6.969,6.969,0,0,0-1,.437Zm-2.3,3.013a5.194,5.194,0,0,1,.415-1.042L3.693,7.062A7.471,7.471,0,0,0,3.278,8.1ZM13.2,3.826a6.913,6.913,0,0,0-1-.433l-.853,2.144a4.676,4.676,0,0,1,1,.432ZM15.366,5.6a7.289,7.289,0,0,0-.765-.8l-1.575,1.64a5.024,5.024,0,0,1,.765.8L15.366,5.6ZM10.54,3.052c-.182-.014-.364-.022-.541-.022s-.359.008-.542.022v2.32a4.641,4.641,0,0,1,1.082,0ZM10,14.537a1.953,1.953,0,0,1-.944-3.662L10,6.45l.944,4.424A1.953,1.953,0,0,1,10,14.537Z" fill="#fff"/>
</svg>
