<svg xmlns="http://www.w3.org/2000/svg" width="20" height="20" viewBox="0 0 20 20">
  <path id="iconmonstr-lifebuoy-1" d="M10,0A10,10,0,1,0,20,10,10,10,0,0,0,10,0Zm7.479,13.652-2.173-1.237a5.79,5.79,0,0,0,0-4.829l2.173-1.238a8.235,8.235,0,0,1,0,7.3ZM1.667,10a8.272,8.272,0,0,1,.854-3.653L4.694,7.585a5.79,5.79,0,0,0,0,4.829L2.521,13.652A8.266,8.266,0,0,1,1.667,10Zm4.167,0A4.167,4.167,0,1,1,10,14.167,4.171,4.171,0,0,1,5.833,10Zm7.831-7.473L12.427,4.7a5.787,5.787,0,0,0-4.853,0L6.336,2.527a8.236,8.236,0,0,1,7.328,0ZM6.336,17.473,7.573,15.3a5.787,5.787,0,0,0,4.853,0l1.238,2.173a8.236,8.236,0,0,1-7.328,0Z" fill="#fff"/>
</svg>
