<svg xmlns="http://www.w3.org/2000/svg" width="11.667" height="14" viewBox="0 0 11.667 14">
  <path id="iconmonstr-trash-can-2" d="M6.083,11.083a.583.583,0,0,1-1.167,0V5.25a.583.583,0,0,1,1.167,0Zm2.333,0a.583.583,0,1,1-1.167,0V5.25a.583.583,0,1,1,1.167,0Zm2.333,0a.583.583,0,1,1-1.167,0V5.25a.583.583,0,1,1,1.167,0Zm2.917-9.917V2.333H2V1.167H5.331c.525,0,.951-.641.951-1.167h3.1c0,.526.426,1.167.951,1.167ZM11.917,3.5v9.333H3.75V3.5H2.583V14h10.5V3.5Z" transform="translate(-2)" fill="#666"/>
</svg>
